<?xml version="1.0" encoding="utf-8"?>
<!-- Generator: Adobe Illustrator 21.1.0, SVG Export Plug-In . SVG Version: 6.00 Build 0)  -->
<svg version="1.1" id="Camada_1" xmlns="http://www.w3.org/2000/svg" xmlns:xlink="http://www.w3.org/1999/xlink" x="0px" y="0px"
	 viewBox="0 0 35 35" style="enable-background:new 0 0 35 35;" xml:space="preserve">
<style type="text/css">
	.st0{fill:#FFFFFF;}
	.st1{fill:#53E3AF;}
	.st2{fill:none;stroke:#53E3AF;stroke-width:1.5;stroke-miterlimit:10;}
</style>
<path class="st0" d="M8.4,9.7C7.6,9.7,7,9.1,7,8.3V2.5c0-0.8,0.6-1.4,1.4-1.4c0.8,0,1.4,0.6,1.4,1.4v5.8C9.8,9.1,9.2,9.7,8.4,9.7z"
	/>
<path class="st0" d="M25.4,9.7c-0.8,0-1.4-0.6-1.4-1.4V2.5c0-0.8,0.6-1.4,1.4-1.4c0.8,0,1.4,0.6,1.4,1.4v5.8
	C26.8,9.1,26.2,9.7,25.4,9.7z"/>
<path class="st0" d="M32.1,3.3h-3.5c-0.6,0-1.1,0.5-1.1,1.1v3.8c0,1.2-1,2.1-2.1,2.1c-1.2,0-2.1-0.9-2.1-2.1V4.5
	c0-0.6-0.5-1.1-1.1-1.1H11.6c-0.6,0-1.1,0.5-1.1,1.1v3.8c0,1.2-1,2.1-2.1,2.1c-1.2,0-2.1-0.9-2.1-2.1V4.5c0-0.6-0.5-1.1-1.1-1.1H1.7
	c-0.6,0-1.1,0.5-1.1,1.1V31c0,0.6,0.5,1.1,1.1,1.1h30.4c0.6,0,1.1-0.5,1.1-1.1V4.5C33.2,3.8,32.7,3.3,32.1,3.3z M30.5,28.3
	c0,0.6-0.5,1.1-1.1,1.1h-25c-0.6,0-1.1-0.5-1.1-1.1V13.6c0-0.6,0.5-1.1,1.1-1.1h25c0.6,0,1.1,0.5,1.1,1.1V28.3z"/>
<polygon class="st1" points="16.8,14.2 19,18.6 23.9,19.3 20.4,22.8 21.2,27.7 16.8,25.4 12.5,27.7 13.3,22.8 9.8,19.3 14.6,18.6 
	"/>
<circle class="st2" cx="89.9" cy="46.3" r="9.3"/>
</svg>
