<?xml version="1.0" encoding="utf-8"?>
<!-- Generator: Adobe Illustrator 21.1.0, SVG Export Plug-In . SVG Version: 6.00 Build 0)  -->
<svg version="1.1" id="Camada_1" xmlns="http://www.w3.org/2000/svg" xmlns:xlink="http://www.w3.org/1999/xlink" x="0px" y="0px"
	 viewBox="0 0 35 35" style="enable-background:new 0 0 35 35;" xml:space="preserve">
<style type="text/css">
	.st0{fill:#FFFFFF;}
</style>
<g>
	<g>
		<path class="st0" d="M6.5,26.4c-0.1,0-0.2,0-0.3,0C6,26.3,5.8,26,5.8,25.7v-3.5H5.1c-1.2,0-3.4-0.7-3.4-3.4V6.5
			c0-1.2,0.7-3.4,3.4-3.4h19.2c1.2,0,3.4,0.7,3.4,3.4v1.7c0,0.4-0.3,0.7-0.7,0.7s-0.7-0.3-0.7-0.7V6.5c0-2-1.7-2.1-2.1-2.1H5.1
			C3.1,4.4,3,6.3,3,6.5v12.4c0,2,1.9,2.1,2.1,2.1h1.4c0.4,0,0.7,0.3,0.7,0.7v2.5l3-3c0.1-0.1,0.3-0.2,0.5-0.2c0.2,0,0.3,0.1,0.5,0.2
			c0.1,0.1,0.2,0.3,0.2,0.5s-0.1,0.3-0.2,0.5L7,26.2C6.9,26.3,6.7,26.4,6.5,26.4z"/>
		<path class="st0" d="M24.4,3.2c1.1,0,3.3,0.7,3.3,3.3v1.7c0,0.3-0.2,0.5-0.5,0.5s-0.5-0.2-0.5-0.5V6.5c0-2.1-2-2.2-2.2-2.2H5.1
			c-2.1,0-2.2,2-2.2,2.2v12.4c0,2.1,2,2.2,2.2,2.2h1.4c0.3,0,0.5,0.2,0.5,0.5v2.8l3.2-3.2c0.1-0.1,0.2-0.2,0.4-0.2
			c0.1,0,0.3,0.1,0.4,0.2c0.2,0.2,0.2,0.5,0,0.8l-4.1,4.1c-0.1,0.1-0.2,0.2-0.4,0.2c-0.1,0-0.1,0-0.2,0C6.1,26.2,6,26,6,25.7v-3.6
			H5.1c-1.1,0-3.3-0.7-3.3-3.3V6.5c0-1.1,0.7-3.3,3.3-3.3H24.4 M24.4,3H5.1C2.3,3,1.6,5.3,1.6,6.5v12.4c0,2.8,2.3,3.5,3.5,3.5h0.6
			v3.3c0,0.3,0.2,0.6,0.5,0.7c0.1,0,0.2,0.1,0.3,0.1c0.2,0,0.4-0.1,0.6-0.2l4.1-4.1c0.3-0.3,0.3-0.8,0-1.1c-0.1-0.1-0.3-0.2-0.6-0.2
			c-0.2,0-0.4,0.1-0.6,0.2l-2.8,2.8v-2.2c0-0.4-0.4-0.8-0.8-0.8H5.1c-0.2,0-2-0.1-2-2V6.5c0-0.2,0.1-2,2-2h19.2c0.3,0,2,0.1,2,2v1.7
			c0,0.4,0.4,0.8,0.8,0.8s0.8-0.4,0.8-0.8V6.5C27.9,3.7,25.6,3,24.4,3L24.4,3z"/>
	</g>
	<g>
		<path class="st0" d="M27.1,31.9c-0.2,0-0.3-0.1-0.5-0.2l-4.1-4.1c-0.3-0.3-0.3-0.7,0-0.9c0.1-0.1,0.3-0.2,0.5-0.2
			c0.2,0,0.3,0.1,0.5,0.2l3,3v-2.5c0-0.4,0.3-0.7,0.7-0.7h2.7c0.2,0,2.1-0.1,2.1-2.1v-11c0-0.3-0.1-2.1-2.1-2.1H16.1
			c-0.2,0-2.1,0.1-2.1,2.1v11c0,2,1.9,2.1,2.1,2.1h4.1c0.4,0,0.7,0.3,0.7,0.7c0,0.4-0.3,0.7-0.7,0.7h-4.1c-1.2,0-3.4-0.7-3.4-3.4
			v-11c0-2.7,2.2-3.4,3.4-3.4h13.7c2.7,0,3.4,2.2,3.4,3.4v11c0,2.7-2.2,3.4-3.4,3.4h-2.1v3.5c0,0.3-0.2,0.5-0.4,0.6
			C27.3,31.9,27.2,31.9,27.1,31.9z"/>
		<path class="st0" d="M29.9,10.1c2.6,0,3.3,2.1,3.3,3.3v11c0,2.6-2.1,3.3-3.3,3.3h-2.2v3.6c0,0.2-0.1,0.4-0.3,0.5
			c-0.1,0-0.1,0-0.2,0c-0.1,0-0.3-0.1-0.4-0.2l-4.1-4.1c-0.2-0.2-0.2-0.5,0-0.8c0.1-0.1,0.2-0.2,0.4-0.2s0.3,0.1,0.4,0.2l3.2,3.2
			v-2.8c0-0.3,0.2-0.5,0.5-0.5h2.7c0.2,0,2.2-0.1,2.2-2.2v-11c0-0.2-0.1-2.2-2.2-2.2H16.1c-0.2,0-2.2,0.1-2.2,2.2v11
			c0,2.1,2,2.2,2.2,2.2h4.1c0.3,0,0.5,0.2,0.5,0.5c0,0.3-0.2,0.5-0.5,0.5h-4.1c-1.1,0-3.3-0.7-3.3-3.3v-11c0-2.6,2.1-3.3,3.3-3.3
			H29.9 M29.9,9.8H16.1c-1.2,0-3.5,0.7-3.5,3.5v11c0,2.8,2.3,3.5,3.5,3.5h4.1c0.4,0,0.8-0.4,0.8-0.8c0-0.4-0.4-0.8-0.8-0.8h-4.1
			c-0.2,0-2-0.1-2-2v-11c0-1.9,1.8-2,2-2h13.7c1.8,0,2,1.6,2,2l0,11c0,1.9-1.8,2-2,2h-2.7c-0.4,0-0.8,0.4-0.8,0.8v2.2l-2.8-2.8
			c-0.1-0.1-0.3-0.2-0.6-0.2c-0.2,0-0.4,0.1-0.6,0.2c-0.1,0.1-0.2,0.3-0.2,0.6c0,0.2,0.1,0.4,0.2,0.6l4.1,4.1
			c0.1,0.1,0.3,0.2,0.6,0.2c0.1,0,0.2,0,0.3-0.1c0.3-0.1,0.5-0.4,0.5-0.7v-3.3h2c1.2,0,3.5-0.7,3.5-3.5v-11
			C33.4,12.2,32.7,9.8,29.9,9.8L29.9,9.8z"/>
	</g>
	<g>
		<path class="st0" d="M17.5,16.8c-0.4,0-0.7-0.3-0.7-0.7c0-0.4,0.3-0.7,0.7-0.7h11c0.4,0,0.7,0.3,0.7,0.7c0,0.4-0.3,0.7-0.7,0.7
			H17.5z"/>
		<path class="st0" d="M28.5,15.6c0.3,0,0.5,0.2,0.5,0.5c0,0.3-0.2,0.5-0.5,0.5h-11c-0.3,0-0.5-0.2-0.5-0.5c0-0.3,0.2-0.5,0.5-0.5
			H28.5 M28.5,15.3h-11c-0.4,0-0.8,0.4-0.8,0.8c0,0.4,0.4,0.8,0.8,0.8h11c0.4,0,0.8-0.4,0.8-0.8C29.3,15.7,28.9,15.3,28.5,15.3
			L28.5,15.3z"/>
	</g>
	<g>
		<path class="st0" d="M17.5,19.5c-0.4,0-0.7-0.3-0.7-0.7s0.3-0.7,0.7-0.7h11c0.4,0,0.7,0.3,0.7,0.7s-0.3,0.7-0.7,0.7H17.5z"/>
		<path class="st0" d="M28.5,18.3c0.3,0,0.5,0.2,0.5,0.5s-0.2,0.5-0.5,0.5h-11c-0.3,0-0.5-0.2-0.5-0.5s0.2-0.5,0.5-0.5H28.5
			 M28.5,18.1h-11c-0.4,0-0.8,0.4-0.8,0.8c0,0.4,0.4,0.8,0.8,0.8h11c0.4,0,0.8-0.4,0.8-0.8C29.3,18.4,28.9,18.1,28.5,18.1L28.5,18.1
			z"/>
	</g>
	<g>
		<path class="st0" d="M17.5,22.3c-0.4,0-0.7-0.3-0.7-0.7c0-0.4,0.3-0.7,0.7-0.7h11c0.4,0,0.7,0.3,0.7,0.7c0,0.4-0.3,0.7-0.7,0.7
			H17.5z"/>
		<path class="st0" d="M28.5,21.1c0.3,0,0.5,0.2,0.5,0.5s-0.2,0.5-0.5,0.5h-11c-0.3,0-0.5-0.2-0.5-0.5c0-0.3,0.2-0.5,0.5-0.5H28.5
			 M28.5,20.8h-11c-0.4,0-0.8,0.4-0.8,0.8c0,0.4,0.4,0.8,0.8,0.8h11c0.4,0,0.8-0.4,0.8-0.8C29.3,21.2,28.9,20.8,28.5,20.8L28.5,20.8
			z"/>
	</g>
</g>
</svg>
