<?xml version="1.0" encoding="utf-8"?>
<!-- Generator: Adobe Illustrator 21.1.0, SVG Export Plug-In . SVG Version: 6.00 Build 0)  -->
<svg version="1.1" id="Camada_1" xmlns="http://www.w3.org/2000/svg" xmlns:xlink="http://www.w3.org/1999/xlink" x="0px" y="0px"
	 viewBox="0 0 35 35" style="enable-background:new 0 0 35 35;" xml:space="preserve">
<style type="text/css">
	.st0{fill:#FFFFFF;}
</style>
<g>
	<g>
		<path class="st0" d="M30.3,29.2c-0.5,0-1-0.4-1-1s0.4-1,1-1h1.3c0,0,0.3-0.4,0.3-1.1V8.8L18.1,20.6c-0.2,0.1-0.4,0.2-0.6,0.2
			s-0.4-0.1-0.6-0.2L3.1,8.8v17.4c0,0.6,0.5,1.1,1.1,1.1h20.6c0.5,0,1,0.4,1,1s-0.4,1-1,1H4.1c-1.6,0-3-1.3-3-3V8.8c0-1.6,1.3-3,3-3
			h26.7c1.6,0,3,1.3,3,3v17.5c0,1.7-1,3-2.2,3H30.3z M17.5,18.6L30.3,7.7H4.7L17.5,18.6z"/>
		<path class="st0" d="M30.9,5.9c1.6,0,2.8,1.3,2.8,2.8v17.5c0,1.6-0.9,2.8-2.1,2.8h-1.3c-0.5,0-0.8-0.4-0.8-0.8
			c0-0.5,0.4-0.8,0.8-0.8h1.3c0.1,0,0.4-0.4,0.4-1.2V8.8c0-0.1,0-0.1,0-0.2L18,20.5c-0.2,0.1-0.3,0.2-0.5,0.2
			c-0.2,0-0.4-0.1-0.5-0.2L3,8.6c0,0.1,0,0.1,0,0.2v17.5c0,0.7,0.5,1.2,1.2,1.2h20.6c0.5,0,0.8,0.4,0.8,0.8c0,0.5-0.4,0.8-0.8,0.8
			H4.1c-1.6,0-2.8-1.3-2.8-2.8V8.8c0-1.6,1.3-2.8,2.8-2.8H30.9 M17.5,18.8L30.6,7.6H4.4L17.5,18.8 M30.9,5.7H4.1
			C2.4,5.7,1,7.1,1,8.8v17.5c0,1.7,1.4,3.1,3.1,3.1h20.6c0.6,0,1.1-0.5,1.1-1.1s-0.5-1.1-1.1-1.1H4.1c-0.5,0-0.9-0.4-0.9-0.9V9.1
			l13.6,11.6c0.2,0.2,0.4,0.3,0.7,0.3c0.3,0,0.5-0.1,0.7-0.3L31.8,9.1v17.1c0,0.5-0.2,0.9-0.3,0.9l-1.2,0c-0.6,0-1.1,0.5-1.1,1.1
			s0.5,1.1,1.1,1.1h1.3c1.3,0,2.4-1.4,2.4-3.1V8.8C34,7.1,32.6,5.7,30.9,5.7L30.9,5.7z M5.1,7.8H30L17.5,18.5L5.1,7.8L5.1,7.8z"/>
	</g>
</g>
</svg>
