<?xml version="1.0" encoding="utf-8"?>
<!-- Generator: Adobe Illustrator 16.0.0, SVG Export Plug-In . SVG Version: 6.00 Build 0)  -->
<!DOCTYPE svg PUBLIC "-//W3C//DTD SVG 1.1//EN" "http://www.w3.org/Graphics/SVG/1.1/DTD/svg11.dtd">
<svg version="1.1" id="Layer_1" xmlns="http://www.w3.org/2000/svg" xmlns:xlink="http://www.w3.org/1999/xlink" x="0px" y="0px"
	 width="168px" height="74px" viewBox="0 0 168 74" enable-background="new 0 0 168 74" xml:space="preserve">
<path fill="#2B2A29" d="M133.984,49.814V16.257h21.221c3.059,0,5.241,0.62,6.55,1.866c1.315,1.247,1.971,3.279,1.971,6.102
	c0,2.246-0.42,3.96-1.262,5.146c-0.839,1.185-2.237,2.019-4.188,2.507c1.937,0.455,3.328,1.405,4.175,2.845s1.274,3.588,1.274,6.454
	c0,3.175-0.633,5.407-1.909,6.702c-1.273,1.288-3.47,1.936-6.611,1.936H133.984z M147.077,42.127h1.453
	c0.709,0,1.206-0.172,1.481-0.516c0.276-0.346,0.413-0.972,0.413-1.889v-1.35c0-0.888-0.137-1.515-0.419-1.866
	c-0.284-0.358-0.779-0.538-1.476-0.538h-1.453V42.127z M147.077,23.901v4.746h1.453c0.683,0,1.172-0.172,1.46-0.523
	c0.29-0.351,0.435-0.957,0.435-1.819c0-0.902-0.137-1.529-0.419-1.88c-0.284-0.352-0.779-0.524-1.476-0.524H147.077z
	 M117.694,49.814V38.373c0-0.888-0.139-1.515-0.421-1.866c-0.283-0.358-0.778-0.538-1.475-0.538h-1.453v13.845h-13.094V16.257
	h21.223c3.043,0,5.213,0.62,6.522,1.859c1.301,1.233,1.955,3.272,1.955,6.109c0,2.26-0.413,3.981-1.253,5.159
	c-0.834,1.178-2.219,2.005-4.153,2.494c1.935,0.455,3.327,1.405,4.174,2.845s1.274,3.588,1.274,6.454v8.638H117.694z
	 M114.346,23.901v4.746h1.453c0.683,0,1.172-0.172,1.461-0.523s0.435-0.957,0.435-1.819c0-0.902-0.139-1.529-0.421-1.88
	c-0.283-0.352-0.778-0.524-1.475-0.524H114.346z M98.387,36.128v6.702c0,2.569-0.641,4.415-1.929,5.538
	c-1.281,1.122-3.41,1.687-6.364,1.687H76.408c-2.755,0-4.773-0.585-6.054-1.749c-1.274-1.164-1.916-2.989-1.916-5.476V24.067
	c0-2.927,0.593-5,1.784-6.206c1.192-1.206,3.259-1.805,6.186-1.805h13.686c3.12,0,5.282,0.592,6.488,1.777
	c1.205,1.185,1.805,3.265,1.805,6.233v4.422H85.086v-2.438c0-0.875-0.13-1.501-0.392-1.866c-0.262-0.373-0.696-0.558-1.302-0.558
	c-0.578,0-0.999,0.193-1.26,0.572c-0.263,0.385-0.393,0.999-0.393,1.852V40.02c0,0.847,0.13,1.467,0.393,1.846
	c0.261,0.387,0.682,0.579,1.26,0.579c0.579,0,1.006-0.192,1.282-0.585c0.275-0.394,0.413-1,0.413-1.84v-3.891H98.387z"/>
<path fill="#FF8135" d="M160.082,60.95l-1.229-2.6l-1.23,2.6H160.082z M159.107,55.707l4.466,9.554h-1.456l-1.441-3.01h-3.66
	l-1.428,3.01h-1.483l4.508-9.554H159.107z M149.271,59.749c0.188,0,0.319-0.014,0.396-0.042c0.075-0.028,0.179-0.075,0.311-0.142
	c0.122-0.065,0.205-0.132,0.247-0.197c0.042-0.066,0.102-0.151,0.177-0.255c0.142-0.226,0.212-0.477,0.212-0.749
	c0-0.254-0.07-0.49-0.212-0.707c-0.075-0.112-0.155-0.21-0.241-0.289c-0.084-0.081-0.164-0.145-0.239-0.19
	c-0.142-0.086-0.344-0.128-0.607-0.128h-1.399v2.686L149.271,59.749z M153.058,65.289h-1.667l-3.278-4.24h-0.198v4.24h-1.343v-9.554
	h2.034c0.256,0,0.463,0.005,0.622,0.014c0.16,0.01,0.29,0.021,0.389,0.036c0.1,0.014,0.175,0.027,0.227,0.042
	c0.052,0.014,0.102,0.025,0.147,0.035c0.595,0.142,1.07,0.43,1.428,0.862c0.377,0.443,0.566,0.994,0.566,1.653
	c0,0.537-0.127,1.009-0.381,1.413c-0.134,0.218-0.291,0.403-0.475,0.559s-0.394,0.285-0.628,0.389
	c-0.16,0.076-0.29,0.134-0.39,0.177c-0.099,0.042-0.214,0.082-0.347,0.12L153.058,65.289z M144.141,60.441
	c0-0.688-0.155-1.31-0.468-1.865c-0.319-0.547-0.771-0.989-1.355-1.329c-0.585-0.329-1.201-0.494-1.852-0.494
	c-0.631,0-1.234,0.165-1.81,0.494c-0.565,0.34-1.013,0.787-1.342,1.343c-0.321,0.557-0.48,1.188-0.48,1.895
	c0,0.527,0.089,1.003,0.268,1.428c0.17,0.423,0.435,0.814,0.792,1.173c0.358,0.357,0.754,0.622,1.188,0.791
	c0.413,0.179,0.876,0.269,1.385,0.269c0.659,0,1.281-0.16,1.865-0.48c0.575-0.33,1.019-0.777,1.329-1.342
	C143.979,61.774,144.141,61.148,144.141,60.441z M144.056,56.88c0.97,0.971,1.455,2.157,1.455,3.562
	c0,1.403-0.485,2.592-1.455,3.563c-0.971,0.97-2.153,1.455-3.547,1.455c-1.404,0-2.602-0.485-3.591-1.455
	c-0.97-0.971-1.456-2.144-1.456-3.52c0-0.914,0.222-1.763,0.666-2.544c0.441-0.782,1.049-1.396,1.822-1.837
	c0.754-0.443,1.578-0.665,2.473-0.665C141.865,55.438,143.076,55.919,144.056,56.88z M128.014,55.68h6.854v1.313h-2.742v8.254
	h-1.355v-8.254h-2.757V55.68z M127.279,55.68v5.724c0,0.423-0.019,0.806-0.056,1.144c-0.039,0.34-0.1,0.642-0.184,0.905
	c-0.17,0.537-0.515,1.009-1.033,1.413c-0.518,0.405-1.14,0.607-1.865,0.607c-0.771,0-1.441-0.188-2.008-0.564
	c-0.564-0.377-0.945-0.882-1.144-1.513c-0.057-0.188-0.102-0.447-0.135-0.777c-0.032-0.33-0.049-0.734-0.049-1.215V55.68h1.343
	v5.724c0,0.404,0.003,0.692,0.007,0.861c0.005,0.17,0.012,0.278,0.021,0.325l0.016,0.015c0.027,0.311,0.116,0.579,0.267,0.806
	c0.161,0.226,0.393,0.404,0.693,0.537c0.302,0.15,0.617,0.226,0.948,0.226c0.263,0,0.521-0.057,0.775-0.169
	c0.236-0.114,0.443-0.274,0.622-0.481c0.161-0.207,0.284-0.456,0.368-0.749c0.02-0.075,0.037-0.212,0.057-0.409
	c0.019-0.198,0.028-0.52,0.028-0.961V55.68H127.279z M115.747,59.749c0.188,0,0.32-0.014,0.396-0.042s0.18-0.075,0.312-0.142
	c0.122-0.065,0.204-0.132,0.247-0.197c0.042-0.066,0.101-0.151,0.177-0.255c0.142-0.226,0.212-0.477,0.212-0.749
	c0-0.254-0.07-0.49-0.212-0.707c-0.076-0.112-0.156-0.21-0.241-0.289c-0.084-0.081-0.164-0.145-0.239-0.19
	c-0.142-0.086-0.344-0.128-0.608-0.128h-1.398v2.686L115.747,59.749z M119.534,65.289h-1.667l-3.279-4.24h-0.197v4.24h-1.343v-9.554
	h2.034c0.255,0,0.462,0.005,0.622,0.014c0.16,0.01,0.29,0.021,0.389,0.036c0.1,0.014,0.175,0.027,0.227,0.042
	c0.052,0.014,0.102,0.025,0.148,0.035c0.594,0.142,1.069,0.43,1.428,0.862c0.377,0.443,0.564,0.994,0.564,1.653
	c0,0.537-0.127,1.009-0.381,1.413c-0.132,0.218-0.29,0.403-0.474,0.559s-0.394,0.285-0.628,0.389
	c-0.161,0.076-0.291,0.134-0.39,0.177c-0.099,0.042-0.214,0.082-0.347,0.12L119.534,65.289z M105.15,55.68h6.854v1.313h-2.742v8.254
	h-1.356v-8.254h-2.756V55.68z M103.835,61.262c0.311,0.479,0.467,0.975,0.467,1.483c0,0.716-0.273,1.343-0.819,1.88
	c-0.547,0.527-1.206,0.792-1.979,0.792c-0.584,0-1.126-0.16-1.624-0.481c-0.48-0.311-0.92-0.833-1.315-1.568l-0.098-0.17l1.13-0.692
	l0.112,0.198c0.246,0.461,0.523,0.819,0.834,1.074c0.273,0.217,0.566,0.325,0.877,0.325c0.273,0,0.527-0.062,0.763-0.184
	c0.226-0.123,0.4-0.288,0.523-0.495c0.122-0.207,0.184-0.429,0.184-0.664c0-0.273-0.09-0.532-0.269-0.778
	c-0.273-0.395-0.777-0.866-1.512-1.413c-0.783-0.593-1.272-1.026-1.471-1.3c-0.349-0.461-0.522-0.965-0.522-1.512
	c0-0.452,0.104-0.853,0.311-1.202c0.104-0.179,0.231-0.339,0.382-0.48c0.15-0.141,0.32-0.264,0.509-0.367
	c0.358-0.207,0.769-0.311,1.229-0.311c0.48,0,0.914,0.118,1.301,0.353c0.414,0.227,0.833,0.637,1.258,1.23l0.127,0.169l-1.074,0.82
	l-0.142-0.169c-0.33-0.435-0.598-0.717-0.806-0.85c-0.207-0.122-0.438-0.184-0.692-0.184c-0.32,0-0.57,0.09-0.749,0.269
	c-0.198,0.188-0.298,0.415-0.298,0.68c0,0.149,0.039,0.314,0.114,0.494c0.065,0.159,0.202,0.339,0.409,0.536
	c0.039,0.048,0.138,0.133,0.298,0.256c0.159,0.121,0.447,0.334,0.861,0.635C102.964,60.239,103.525,60.781,103.835,61.262z
	 M96.176,55.735h1.328v9.554h-0.509l-5.724-6.558v6.558h-1.372v-9.554h0.51l5.767,6.643V55.735z M87.498,60.441
	c0-0.688-0.155-1.31-0.467-1.865c-0.32-0.547-0.772-0.989-1.356-1.329c-0.585-0.329-1.202-0.494-1.852-0.494
	c-0.631,0-1.234,0.165-1.809,0.494c-0.565,0.34-1.013,0.787-1.342,1.343c-0.321,0.557-0.481,1.188-0.481,1.895
	c0,0.527,0.089,1.003,0.268,1.428c0.17,0.423,0.434,0.814,0.792,1.173c0.357,0.357,0.753,0.622,1.187,0.791
	c0.414,0.179,0.875,0.269,1.385,0.269c0.659,0,1.282-0.16,1.865-0.48c0.575-0.33,1.018-0.777,1.329-1.342
	C87.338,61.774,87.498,61.148,87.498,60.441z M87.413,56.88c0.97,0.971,1.455,2.157,1.455,3.562c0,1.403-0.485,2.592-1.455,3.563
	c-0.971,0.97-2.153,1.455-3.548,1.455c-1.403,0-2.601-0.485-3.589-1.455c-0.971-0.971-1.456-2.144-1.456-3.52
	c0-0.914,0.222-1.763,0.665-2.544c0.443-0.782,1.05-1.396,1.823-1.837c0.754-0.443,1.579-0.665,2.473-0.665
	C85.222,55.438,86.433,55.919,87.413,56.88z M78.142,63.354l-0.127,0.169c-0.471,0.604-1.064,1.075-1.781,1.413
	c-0.715,0.33-1.508,0.495-2.374,0.495c-1.658,0-2.973-0.557-3.943-1.668c-0.81-0.951-1.215-2.087-1.215-3.406
	c0-1.394,0.49-2.566,1.469-3.52c0.98-0.951,2.206-1.427,3.675-1.427c0.443,0,0.865,0.042,1.265,0.127s0.78,0.218,1.138,0.396
	c0.725,0.358,1.314,0.853,1.766,1.483l0.127,0.17l-1.06,0.806l-0.127-0.17c-0.368-0.48-0.82-0.853-1.357-1.116
	c-0.528-0.254-1.107-0.382-1.738-0.382c-0.688,0-1.329,0.17-1.922,0.509c-0.593,0.33-1.045,0.773-1.357,1.329
	c-0.33,0.556-0.494,1.182-0.494,1.879c0,0.509,0.089,0.994,0.269,1.456c0.188,0.442,0.461,0.838,0.819,1.188
	c0.179,0.179,0.37,0.332,0.573,0.459c0.203,0.127,0.417,0.238,0.643,0.332c0.49,0.179,0.998,0.269,1.526,0.269
	c0.603,0,1.159-0.122,1.667-0.367c0.5-0.227,0.961-0.584,1.386-1.074l0.127-0.142L78.142,63.354z"/>
<path fill="#2B2A29" d="M163.237,16.343h0.314c0.151,0,0.253-0.022,0.308-0.066c0.055-0.045,0.083-0.104,0.083-0.178
	c0-0.047-0.014-0.089-0.04-0.127c-0.026-0.037-0.063-0.065-0.109-0.083c-0.047-0.019-0.135-0.028-0.26-0.028h-0.296V16.343z
	 M162.978,17.246v-1.604h0.553c0.188,0,0.325,0.015,0.409,0.044c0.086,0.03,0.152,0.081,0.202,0.155
	c0.051,0.074,0.076,0.151,0.076,0.235c0,0.117-0.042,0.219-0.128,0.306c-0.082,0.086-0.193,0.135-0.332,0.146
	c0.056,0.024,0.102,0.052,0.136,0.085c0.065,0.063,0.144,0.168,0.238,0.318l0.195,0.314h-0.315l-0.144-0.252
	c-0.11-0.199-0.202-0.324-0.271-0.375c-0.048-0.036-0.115-0.055-0.207-0.054h-0.152v0.681H162.978z M163.634,15.177
	c-0.21,0-0.414,0.054-0.613,0.161c-0.198,0.107-0.354,0.262-0.466,0.46c-0.112,0.201-0.167,0.409-0.167,0.624
	c0,0.216,0.055,0.422,0.164,0.619c0.11,0.197,0.265,0.351,0.462,0.461c0.197,0.11,0.404,0.166,0.62,0.166
	c0.214,0,0.421-0.055,0.619-0.166c0.196-0.11,0.352-0.264,0.461-0.461c0.108-0.197,0.164-0.403,0.164-0.619
	c0-0.215-0.056-0.423-0.168-0.624c-0.111-0.199-0.267-0.353-0.466-0.46C164.044,15.231,163.842,15.177,163.634,15.177z
	 M163.634,14.93c0.249,0,0.495,0.063,0.734,0.193c0.238,0.128,0.423,0.313,0.556,0.551c0.133,0.239,0.201,0.489,0.201,0.748
	c0,0.258-0.066,0.505-0.198,0.742c-0.13,0.238-0.313,0.422-0.552,0.554c-0.236,0.131-0.482,0.197-0.741,0.197
	s-0.506-0.066-0.744-0.197c-0.236-0.131-0.421-0.315-0.553-0.554c-0.131-0.236-0.198-0.484-0.198-0.742
	c0-0.259,0.067-0.509,0.201-0.748c0.135-0.239,0.321-0.423,0.559-0.551C163.139,14.994,163.382,14.93,163.634,14.93z"/>
<polygon fill-rule="evenodd" clip-rule="evenodd" fill="#CFD0D0" points="4.875,27.419 8.851,26.423 8.851,26.297 8.713,26.332 
	8.713,26.2 8.577,26.235 8.577,26.103 8.439,26.137 8.439,26.006 8.302,26.04 8.302,25.909 8.166,25.943 8.166,25.812 8.028,25.847 
	8.028,25.715 7.891,25.749 7.891,25.618 7.754,25.652 7.754,25.521 7.617,25.556 7.617,25.425 7.479,25.458 7.479,25.327 
	7.343,25.361 7.343,25.23 7.206,25.264 7.206,25.133 7.068,25.167 7.068,25.037 6.931,25.071 6.931,24.939 6.794,24.974 
	6.794,24.842 6.657,24.877 6.657,24.746 6.52,24.78 6.52,24.648 6.383,24.683 6.383,24.551 6.246,24.586 6.246,24.454 6.109,24.489 
	6.109,24.357 5.972,24.392 5.972,24.261 5.834,24.294 5.834,24.163 5.697,24.198 5.697,24.066 5.561,24.101 5.561,23.969 
	5.423,24.004 5.423,23.873 5.286,23.907 5.286,23.775 5.149,23.81 5.149,23.678 5.012,23.713 5.012,23.582 4.875,23.615 
	4.875,16.359 44.128,6.526 44.128,6.657 44.265,6.623 44.265,6.755 44.402,6.721 44.402,6.852 44.54,6.817 44.54,6.948 
	44.676,6.914 44.676,7.045 44.813,7.011 44.813,7.143 44.951,7.108 44.951,7.24 45.088,7.205 45.088,7.336 45.225,7.302 
	45.225,7.433 45.362,7.399 45.362,7.531 45.499,7.496 45.499,7.627 45.636,7.593 45.636,7.725 45.773,7.689 45.773,7.821 
	45.91,7.787 45.91,7.919 46.047,7.884 46.047,8.016 46.185,7.981 46.185,8.112 46.322,8.078 46.322,8.209 46.459,8.175 
	46.459,8.306 46.596,8.272 46.596,8.403 46.733,8.369 46.733,8.5 46.871,8.466 46.871,8.597 47.007,8.563 47.007,8.694 
	47.145,8.659 47.145,8.791 47.282,8.757 47.282,8.888 47.419,8.854 47.419,8.985 47.556,8.951 47.556,9.082 47.693,9.047 
	47.693,9.179 47.83,9.145 47.83,9.276 47.967,9.242 47.967,9.373 48.104,9.338 48.104,9.47 48.241,9.435 48.241,9.567 48.378,9.533 
	48.378,9.665 48.516,9.63 48.516,9.761 48.653,9.727 48.653,9.858 48.79,9.823 48.79,9.955 48.927,9.921 48.927,10.052 
	49.064,10.018 49.064,10.148 49.201,10.114 49.201,10.245 49.338,10.211 49.338,10.343 49.475,10.309 49.475,10.439 49.612,10.405 
	49.612,10.537 49.75,10.502 49.75,10.633 49.887,10.599 49.887,10.731 50.023,10.696 50.023,10.828 50.161,10.793 50.161,10.924 
	50.298,10.891 50.298,11.021 50.435,10.987 50.435,11.119 50.572,11.084 50.572,11.216 50.709,11.181 50.709,11.313 50.847,11.278 
	50.847,11.409 50.983,11.375 50.983,11.506 51.121,11.472 51.121,11.604 51.258,11.569 51.258,11.701 51.395,11.667 51.395,11.797 
	51.532,11.763 51.532,11.894 51.669,11.86 51.669,11.991 51.806,11.957 51.806,12.088 51.943,12.055 51.943,12.185 52.08,12.15 
	52.08,12.282 52.217,12.248 52.217,12.379 52.354,12.345 52.354,12.477 52.492,12.442 52.492,12.573 52.629,12.539 52.629,12.67 
	52.766,12.635 52.766,12.767 52.903,12.733 52.903,12.864 53.04,12.83 53.04,12.961 53.177,12.927 53.177,13.058 53.314,13.023 
	53.314,13.155 53.451,13.121 53.451,13.252 53.589,13.218 53.589,13.349 53.726,13.314 53.726,13.446 53.862,13.412 53.862,13.543 
	54,13.509 54,13.64 54.137,13.606 54.137,13.736 54.274,13.703 54.274,13.834 54.411,13.8 54.411,13.931 54.548,13.896 
	54.548,14.028 54.686,13.993 54.686,14.125 54.823,14.09 54.823,14.222 54.959,14.188 54.959,14.319 55.097,14.284 55.097,14.416 
	55.234,14.381 55.234,14.513 55.371,14.479 55.371,14.61 55.508,14.575 55.508,14.707 55.645,14.672 55.645,14.804 55.782,14.769 
	55.782,14.9 55.919,14.867 55.919,14.998 56.057,14.963 56.057,15.094 56.193,15.06 56.193,15.192 56.331,15.157 56.331,15.289 
	56.468,15.254 56.468,15.385 56.605,15.352 56.605,15.482 56.742,15.448 56.742,15.579 56.879,15.545 56.879,15.677 57.017,15.643 
	57.017,15.773 57.153,15.739 57.153,15.87 57.291,15.836 57.291,15.968 57.428,15.933 57.428,16.064 57.564,16.03 57.564,16.162 
	57.702,16.126 57.702,16.258 57.839,16.224 57.839,16.356 57.976,16.321 57.976,44.58 54,45.575 54,45.703 54.137,45.668 
	54.137,45.8 54.274,45.765 54.274,45.896 54.411,45.862 54.411,45.993 54.548,45.959 54.548,46.091 54.686,46.056 54.686,46.187 
	54.823,46.152 54.823,46.284 54.959,46.25 54.959,46.381 55.097,46.347 55.097,46.478 55.234,46.444 55.234,46.575 55.371,46.541 
	55.371,46.673 55.508,46.638 55.508,46.77 55.645,46.734 55.645,46.866 55.782,46.831 55.782,46.963 55.919,46.929 55.919,47.061 
	56.057,47.025 56.057,47.157 56.193,47.122 56.193,47.254 56.331,47.22 56.331,47.351 56.468,47.316 56.468,47.448 56.605,47.414 
	56.605,47.545 56.742,47.511 56.742,47.642 56.879,47.607 56.879,47.739 57.017,47.705 57.017,47.836 57.153,47.802 57.153,47.933 
	57.291,47.898 57.291,48.03 57.428,47.996 57.428,48.127 57.564,48.092 57.564,48.224 57.702,48.189 57.702,48.32 57.839,48.286 
	57.839,48.418 57.976,48.383 57.976,55.64 18.723,65.473 18.723,65.342 18.585,65.376 18.585,65.245 18.448,65.278 18.448,65.147 
	18.311,65.182 18.311,65.051 18.174,65.085 18.174,64.954 18.037,64.988 18.037,64.856 17.9,64.891 17.9,64.76 17.763,64.795 
	17.763,64.663 17.626,64.697 17.626,64.566 17.489,64.601 17.489,64.469 17.352,64.504 17.352,64.372 17.214,64.406 17.214,64.275 
	17.077,64.31 17.077,64.179 16.94,64.212 16.94,64.081 16.803,64.115 16.803,63.984 16.666,64.019 16.666,63.887 16.529,63.922 
	16.529,63.79 16.392,63.824 16.392,63.692 16.254,63.728 16.254,63.597 16.117,63.631 16.117,63.5 15.98,63.534 15.98,63.402 
	15.843,63.437 15.843,63.306 15.707,63.34 15.707,63.209 15.569,63.242 15.569,63.112 15.432,63.146 15.432,63.015 15.295,63.049 
	15.295,62.917 15.158,62.951 15.158,62.82 15.021,62.854 15.021,62.723 14.883,62.758 14.883,62.626 14.747,62.661 14.747,62.529 
	14.609,62.564 14.609,62.433 14.472,62.467 14.472,62.335 14.335,62.37 14.335,62.238 14.198,62.273 14.198,62.142 14.061,62.176 
	14.061,62.045 13.924,62.079 13.924,61.947 13.787,61.981 13.787,61.851 13.649,61.885 13.649,61.754 13.513,61.788 13.513,61.656 
	13.375,61.69 13.375,61.56 13.238,61.594 13.238,61.463 13.101,61.497 13.101,61.366 12.964,61.4 12.964,61.269 12.827,61.304 
	12.827,61.172 12.69,61.206 12.69,61.075 12.553,61.109 12.553,60.979 12.416,61.012 12.416,60.881 12.278,60.915 12.278,60.784 
	12.141,60.818 12.141,60.688 12.004,60.721 12.004,60.59 11.867,60.624 11.867,60.492 11.73,60.527 11.73,60.396 11.593,60.431 
	11.593,60.299 11.456,60.333 11.456,60.201 11.319,60.236 11.319,60.104 11.182,60.14 11.182,60.008 11.044,60.043 11.044,59.911 
	10.907,59.945 10.907,59.814 10.771,59.849 10.771,59.718 10.633,59.751 10.633,59.62 10.496,59.654 10.496,59.523 10.359,59.557 
	10.359,59.426 10.222,59.46 10.222,59.329 10.085,59.364 10.085,59.232 9.948,59.267 9.948,59.135 9.811,59.169 9.811,59.038 
	9.673,59.073 9.673,58.941 9.536,58.977 9.536,58.845 9.399,58.879 9.399,58.747 9.262,58.781 9.262,58.65 9.125,58.685 
	9.125,58.554 8.988,58.587 8.988,58.457 8.851,58.49 8.851,58.359 8.713,58.394 8.713,58.262 8.577,58.297 8.577,58.165 
	8.439,58.199 8.439,58.068 8.302,58.103 8.302,57.972 8.166,58.006 8.166,57.874 8.028,57.909 8.028,57.777 7.891,57.812 
	7.891,57.681 7.754,57.715 7.754,57.584 7.617,57.618 7.617,57.487 7.479,57.521 7.479,57.39 7.343,57.424 7.343,57.293 
	7.206,57.327 7.206,57.195 7.068,57.23 7.068,57.099 6.931,57.133 6.931,57.001 6.794,57.036 6.794,56.904 6.657,56.939 
	6.657,56.808 6.52,56.843 6.52,56.711 6.383,56.745 6.383,56.613 6.246,56.648 6.246,56.517 6.109,56.552 6.109,56.42 5.972,56.454 
	5.972,56.323 5.834,56.356 5.834,56.227 5.697,56.26 5.697,56.129 5.561,56.163 5.561,56.031 5.423,56.066 5.423,55.935 
	5.286,55.969 5.286,55.838 5.149,55.873 5.149,55.741 5.012,55.775 5.012,55.644 4.875,55.679 "/>
<path fill-rule="evenodd" clip-rule="evenodd" fill="#FF8135" d="M57.976,44.58l-27.595,6.908v-6.64l20.471-5.125V25.361
	l-32.129,8.049v-7.256l39.253-9.833V44.58z M18.723,37.214l27.595-6.909v6.64l-20.471,5.125v14.363l32.129-8.05v7.257l-39.253,9.833
	V37.214z"/>
<polygon fill-rule="evenodd" clip-rule="evenodd" fill="#434242" points="4.875,16.359 18.723,26.154 18.723,33.411 4.875,23.615 
	"/>
<polygon fill-rule="evenodd" clip-rule="evenodd" fill="#434242" points="4.875,27.419 18.723,37.214 18.723,65.473 4.943,55.661 
	"/>
<polygon fill-rule="evenodd" clip-rule="evenodd" fill="#434242" points="50.814,25.393 50.814,39.636 46.406,36.517 46.406,30.305 
	42.43,27.493 "/>
<polygon fill-rule="evenodd" clip-rule="evenodd" fill="#434242" points="30.381,44.849 30.381,51.488 25.847,48.281 25.847,42.069 
	"/>
</svg>
