<?xml version="1.0" encoding="utf-8"?>
<!-- Generator: Adobe Illustrator 21.1.0, SVG Export Plug-In . SVG Version: 6.00 Build 0)  -->
<svg version="1.1" id="Camada_1" xmlns="http://www.w3.org/2000/svg" xmlns:xlink="http://www.w3.org/1999/xlink" x="0px" y="0px"
	 viewBox="0 0 35 35" style="enable-background:new 0 0 35 35;" xml:space="preserve">
<style type="text/css">
	.st0{fill:#FFFFFF;}
</style>
<g>
	<path class="st0" d="M25.1,32.9c-4.1,0-9.7-3.1-14.8-8.2C5.3,19.6,2.1,13.9,2.1,9.9c0-1.2,0.4-2.3,1.1-3.1l2.2-2.3
		C5.6,4.3,5.8,4.2,6,4.2c0,0,0,0,0,0c0.3,0,0.5,0.1,0.6,0.2C7,4.8,7,5.3,6.7,5.6L4.5,7.9C4,8.4,3.8,9.1,3.8,9.9
		c0,2.9,2.7,8.6,7.7,13.6c5.1,5.1,10.7,7.7,13.6,7.7c0.8,0,1.5-0.2,2-0.7l3.8-3.7L25.1,21l-3.6,3.3c-0.2,0.1-0.3,0.2-0.6,0.2
		c-0.1,0-0.3,0-0.4-0.1c-2.2-1.2-4.1-2.7-5.7-4.3c-1.6-1.6-3-3.5-4.3-5.7c-0.2-0.3-0.1-0.7,0.1-1L14,9.9L7.6,3.5
		C7.4,3.4,7.3,3.2,7.3,3c0-0.2,0-0.4,0.2-0.6c0.1-0.2,0.3-0.3,0.6-0.3c0.3,0,0.5,0.1,0.7,0.3l6.9,6.9c0.3,0.3,0.3,0.8,0,1.1
		l-3.4,3.7c1.2,2,2.4,3.6,3.7,4.9c1.4,1.4,3,2.6,4.9,3.7l3.7-3.4c0,0,0.1-0.1,0.1-0.1c0.1-0.1,0.3-0.2,0.5-0.2
		c0.2,0,0.5,0.1,0.6,0.3l6.8,6.9c0.3,0.3,0.3,0.8,0,1.2l-4.4,4.3C27.5,32.5,26.4,32.9,25.1,32.9z"/>
	<path class="st0" d="M8.1,2.3C8.1,2.3,8.1,2.3,8.1,2.3c0.2,0,0.4,0.1,0.5,0.2l6.9,6.9c0.3,0.3,0.3,0.7,0,1l-3.4,3.8
		c1.1,1.8,2.3,3.5,3.8,5c1.4,1.4,3.1,2.7,5,3.8l3.8-3.5c0,0,0.1-0.1,0.1-0.1c0.1-0.1,0.3-0.1,0.4-0.1c0.2,0,0.4,0.1,0.5,0.3
		c0,0,0,0,0,0l6.8,6.9c0,0,0,0,0,0c0.3,0.3,0.3,0.7,0,1l-4.4,4.3c-0.8,0.7-1.8,1.1-3,1.1c-3.9,0-9.5-3-14.7-8.2
		C5.3,19.4,2.3,13.8,2.3,9.9c0-1.2,0.4-2.3,1.1-3v0l2.2-2.3C5.7,4.4,5.9,4.3,6,4.3c0,0,0,0,0,0c0.2,0,0.4,0.1,0.5,0.2
		c0.3,0.3,0.3,0.7,0,1L4.4,7.8c0,0,0,0,0,0C3.9,8.3,3.6,9,3.6,9.9c0,3.1,2.8,8.7,7.8,13.7c5,5,10.6,7.8,13.7,7.8
		c0.9,0,1.6-0.3,2.1-0.7l3.9-3.8l-5.9-6l-3.7,3.4c-0.1,0.1-0.3,0.2-0.5,0.2c-0.1,0-0.2,0-0.3-0.1c-2.1-1.2-4-2.6-5.7-4.3
		c-1.7-1.7-3.1-3.6-4.3-5.7c-0.1-0.3-0.1-0.6,0.1-0.8l3.4-3.7L7.7,3.4C7.5,3.3,7.5,3.2,7.5,3C7.4,2.6,7.7,2.3,8.1,2.3
		C8.1,2.3,8.1,2.3,8.1,2.3 M8.1,2L8.1,2L8.1,2c-0.6,0.1-1,0.5-0.9,1c0,0.2,0.1,0.4,0.3,0.6l6.3,6.3l-3.2,3.5
		c-0.3,0.3-0.3,0.7-0.1,1.1c1.3,2.2,2.7,4.1,4.3,5.7c1.6,1.6,3.6,3.1,5.7,4.3c0.1,0.1,0.3,0.1,0.5,0.1c0.2,0,0.5-0.1,0.6-0.2
		l3.5-3.2l5.6,5.7L27,30.5c-0.4,0.4-1.1,0.7-1.9,0.7c-2.9,0-8.5-2.6-13.5-7.7c-5-5-7.7-10.6-7.7-13.5c0-0.8,0.2-1.4,0.7-1.9l0.1-0.1
		l0,0l2.1-2.2C6.9,5.5,7,5.3,7,5c0-0.3-0.1-0.5-0.3-0.7C6.6,4.2,6.3,4.1,6.1,4.1h0l0,0c-0.2,0-0.5,0.1-0.6,0.3L3.2,6.7L3.1,6.8v0
		C2.4,7.6,2,8.7,2,9.9c0,4.1,3.2,9.8,8.2,14.9C15.3,29.8,21,33,25.1,33c1.3,0,2.4-0.4,3.2-1.2l4.4-4.3c0.4-0.4,0.4-1,0-1.3l-6.8-6.9
		c-0.2-0.2-0.5-0.4-0.7-0.4c-0.2,0-0.4,0.1-0.6,0.2c0,0-0.1,0.1-0.1,0.1l-3.6,3.3c-1.8-1.1-3.4-2.3-4.8-3.6
		c-1.3-1.3-2.5-2.9-3.6-4.8l3.3-3.6c0.3-0.4,0.3-0.9,0-1.3L8.8,2.3C8.6,2.1,8.4,2,8.1,2L8.1,2L8.1,2L8.1,2z"/>
</g>
</svg>
